<svg width="63" height="63" viewBox="0 0 63 63" fill="none" xmlns="http://www.w3.org/2000/svg">
<path d="M8.86936 32.6721C7.9416 21.6511 18.7703 12.9242 31.6987 14.3064C32.0131 14.3398 32.09 14.8497 31.7787 14.9075C21.2187 16.8718 17.9416 33.1484 10.2676 33.6418C9.58576 33.6857 8.92865 33.3764 8.86936 32.6721Z" fill="white"/>
<path d="M8.86936 32.6721C8.89575 32.9853 9.04431 33.216 9.25655 33.3764C10.7656 34.278 13.3234 31.6678 15.0157 26.2191C17.4979 18.2263 25.0945 14.4785 31.6987 14.3064C18.7703 12.9242 7.9416 21.6511 8.86936 32.6721Z" fill="white"/>
<path d="M33.1765 55.3971C22.5292 56.3575 14.0983 45.1486 15.4336 31.7665C15.466 31.441 15.9583 31.3617 16.0142 31.6837C17.9118 42.6143 33.6367 46.0064 34.1133 53.9498C34.1556 54.6555 33.857 55.3357 33.1765 55.3971Z" fill="white"/>
<path d="M33.1765 55.3971C33.4789 55.3698 33.7019 55.2156 33.857 54.9959C34.728 53.4339 32.2063 50.7863 26.9423 49.0348C19.2206 46.4653 15.5998 38.6025 15.4336 31.7665C14.0983 45.1486 22.5292 56.3575 33.1765 55.3971Z" fill="white"/>
<path d="M55.1305 30.2363C56.0584 41.2574 45.2296 49.9843 32.3012 48.6021C31.9868 48.5685 31.9101 48.0588 32.2212 48.001C42.7814 46.0368 46.0583 29.7601 53.7323 29.2666C54.4141 29.2228 55.0712 29.5319 55.1305 30.2363Z" fill="white"/>
<path d="M55.1305 30.2363C55.1041 29.9231 54.9556 29.6927 54.7432 29.5321C53.2339 28.6305 50.6761 31.2408 48.984 36.6895C46.5016 44.6822 38.9054 48.43 32.3012 48.6021C45.2296 49.9843 56.0584 41.2574 55.1305 30.2363Z" fill="white"/>
<path d="M30.8235 7.51203C41.4708 6.55171 49.9018 17.7605 48.5664 31.1426C48.5342 31.4681 48.0416 31.5476 47.9859 31.2255C46.0881 20.2948 30.3633 16.9026 29.8867 8.95946C29.8444 8.25357 30.143 7.5734 30.8235 7.51203Z" fill="white"/>
<path d="M30.8235 7.51203C30.5209 7.53934 30.2979 7.69297 30.1428 7.9128C29.2718 9.47481 31.7937 12.1224 37.0577 13.8741C44.7793 16.4434 48.4001 24.3068 48.5664 31.1426C49.9018 17.7605 41.4708 6.55171 30.8235 7.51203Z" fill="white"/>
</svg>
