<svg width="62" height="63" viewBox="0 0 62 63" fill="none" xmlns="http://www.w3.org/2000/svg">
<path d="M15.7273 37.222L14.4182 36.1506C10.0545 32.0791 7 29.5077 7 26.2934C7 23.722 9.18182 21.5791 11.8 21.5791C13.3273 21.5791 14.8545 22.222 15.7273 23.2934C16.6 22.222 18.1273 21.5791 19.6545 21.5791C22.2727 21.5791 24.4545 23.5077 24.4545 26.2934C24.4545 29.5077 21.4 32.0791 17.0364 36.1506L15.7273 37.222ZM37.5455 13.6506C35.2308 13.6506 33.011 14.5536 31.3743 16.1611C29.7377 17.7685 28.8182 19.9487 28.8182 22.222C28.8182 24.4953 29.7377 26.6755 31.3743 28.2829C33.011 29.8904 35.2308 30.7934 37.5455 30.7934C39.8601 30.7934 42.0799 29.8904 43.7166 28.2829C45.3532 26.6755 46.2727 24.4953 46.2727 22.222C46.2727 19.9487 45.3532 17.7685 43.7166 16.1611C42.0799 14.5536 39.8601 13.6506 37.5455 13.6506ZM37.5455 26.722C36.3303 26.722 35.1649 26.2479 34.3056 25.404C33.4464 24.5601 32.9636 23.4155 32.9636 22.222C32.9636 21.0285 33.4464 19.8839 34.3056 19.04C35.1649 18.1961 36.3303 17.722 37.5455 17.722C38.1471 17.722 38.743 17.8384 39.2988 18.0645C39.8547 18.2907 40.3598 18.6222 40.7853 19.04C41.2108 19.4579 41.5482 19.954 41.7785 20.4999C42.0088 21.0459 42.1273 21.6311 42.1273 22.222C42.1273 22.813 42.0088 23.3981 41.7785 23.9441C41.5482 24.49 41.2108 24.9861 40.7853 25.404C40.3598 25.8218 39.8547 26.1533 39.2988 26.3795C38.743 26.6056 38.1471 26.722 37.5455 26.722ZM37.5455 32.9363C31.72 32.9363 20.0909 35.7863 20.0909 41.5077V47.9363H55V41.5077C55 35.7863 43.3709 32.9363 37.5455 32.9363ZM50.8545 43.8649H24.2364V41.5077C24.2364 40.1363 31 37.0077 37.5455 37.0077C44.0255 37.0077 50.8545 40.1363 50.8545 41.5077V43.8649Z" fill="white"/>
</svg>
