<svg width="62" height="63" viewBox="0 0 62 63" fill="none" xmlns="http://www.w3.org/2000/svg">
<path d="M31.4545 14.1323C29.1399 14.1323 26.9201 15.0278 25.2834 16.6219C23.6468 18.2159 22.7273 20.378 22.7273 22.6323C22.7273 24.8866 23.6468 27.0486 25.2834 28.6427C26.9201 30.2368 29.1399 31.1323 31.4545 31.1323C33.7692 31.1323 35.989 30.2368 37.6257 28.6427C39.2623 27.0486 40.1818 24.8866 40.1818 22.6323C40.1818 20.378 39.2623 18.2159 37.6257 16.6219C35.989 15.0278 33.7692 14.1323 31.4545 14.1323ZM31.4545 27.0948C30.2394 27.0948 29.074 26.6246 28.2147 25.7878C27.3555 24.9509 26.8727 23.8158 26.8727 22.6323C26.8727 21.4488 27.3555 20.3137 28.2147 19.4768C29.074 18.6399 30.2394 18.1698 31.4545 18.1698C32.0562 18.1698 32.652 18.2852 33.2079 18.5095C33.7638 18.7337 34.2689 19.0624 34.6944 19.4768C35.1198 19.8912 35.4573 20.3832 35.6876 20.9246C35.9179 21.466 36.0364 22.0463 36.0364 22.6323C36.0364 23.2183 35.9179 23.7986 35.6876 24.34C35.4573 24.8814 35.1198 25.3734 34.6944 25.7878C34.2689 26.2021 33.7638 26.5308 33.2079 26.7551C32.652 26.9794 32.0562 27.0948 31.4545 27.0948ZM31.4545 33.2573C25.6291 33.2573 14 36.0835 14 41.7573V48.1323H48.9091V41.7573C48.9091 36.0835 37.28 33.2573 31.4545 33.2573ZM44.7636 44.0948H18.1455V41.7573C18.1455 40.3973 24.9091 37.2948 31.4545 37.2948C37.9345 37.2948 44.7636 40.3973 44.7636 41.7573V44.0948Z" fill="white"/>
</svg>
