<svg width="150" height="43" viewBox="0 0 150 43" fill="none" xmlns="http://www.w3.org/2000/svg">
<path d="M0.0514779 22.5895C-0.808762 12.7171 9.23191 4.89968 21.2194 6.13784C21.511 6.16774 21.5822 6.6245 21.2936 6.67629C11.5021 8.43581 8.46352 23.0162 1.34794 23.4581C0.71574 23.4975 0.106455 23.2205 0.0514779 22.5895Z" fill="black"/>
<path d="M0.0514779 22.5895C0.0759496 22.8701 0.213696 23.0768 0.410487 23.2205C1.80971 24.0281 4.18137 21.6899 5.75055 16.809C8.05211 9.64924 15.0958 6.292 21.2194 6.13784C9.23191 4.89968 -0.808762 12.7171 0.0514779 22.5895Z" fill="black"/>
<path d="M22.5897 42.9464C12.7173 43.8067 4.89988 33.7659 6.13804 21.7784C6.16807 21.4869 6.62456 21.4158 6.67635 21.7043C8.43588 31.4957 23.0164 34.5343 23.4583 41.6499C23.4976 42.2821 23.2207 42.8914 22.5897 42.9464Z" fill="black"/>
<path d="M22.5897 42.9464C22.8701 42.9219 23.0768 42.784 23.2207 42.5872C24.0283 41.188 21.6901 38.8163 16.8092 37.2473C9.64943 34.9456 6.29219 27.902 6.13804 21.7784C4.89988 33.7659 12.7173 43.8067 22.5897 42.9464Z" fill="black"/>
<path d="M42.946 20.4078C43.8064 30.2804 33.7656 38.0978 21.7781 36.8596C21.4865 36.8296 21.4154 36.373 21.7039 36.3212C31.4955 34.5617 34.534 19.9813 41.6496 19.5392C42.2818 19.5 42.891 19.7769 42.946 20.4078Z" fill="black"/>
<path d="M42.946 20.4078C42.9215 20.1273 42.7838 19.9207 42.5868 19.7768C41.1874 18.9692 38.8157 21.3074 37.2468 26.1883C34.945 33.3481 27.9017 36.7055 21.7781 36.8596C33.7656 38.0978 43.8064 30.2804 42.946 20.4078Z" fill="black"/>
<path d="M20.408 0.0514829C30.2804 -0.808757 38.0978 9.23191 36.8597 21.2194C36.8298 21.511 36.373 21.5822 36.3214 21.2937C34.5617 11.5021 19.9813 8.46346 19.5394 1.34808C19.5001 0.715745 19.777 0.10646 20.408 0.0514829Z" fill="black"/>
<path d="M20.408 0.0514829C20.1274 0.0759546 19.9206 0.213566 19.7768 0.410492C18.9691 1.80972 21.3075 4.18138 26.1884 5.75055C33.3481 8.05212 36.7054 15.096 36.8597 21.2194C38.0978 9.23191 30.2804 -0.808757 20.408 0.0514829Z" fill="black"/>
<path d="M76.9991 20.4729H72.4495V19.3354C72.4495 18.7075 72.9586 18.1982 73.5868 18.1982H75.8616C76.4898 18.1982 76.9991 18.7075 76.9991 19.3354V20.4729ZM76.9991 13.6485H72.4495C69.9367 13.6485 67.8999 15.6854 67.8999 18.1982V27.2973C67.8999 29.8099 69.9367 31.8467 72.4495 31.8467H80.4112V27.2973H73.5868C72.9586 27.2973 72.4495 26.788 72.4495 26.1598V25.0223H81.5485V18.1982C81.5485 15.6853 79.5117 13.6485 76.9991 13.6485Z" fill="black"/>
<path d="M58.8007 0H49.7016V4.5029H58.7422C59.9986 4.5029 61.017 5.52125 61.017 6.77755V24.9758C61.017 26.2322 59.9986 27.2506 58.7422 27.2506H54.1927V6.82438H49.7015V31.8469H58.8007C62.5695 31.8469 65.6249 28.7915 65.6249 25.0225V6.82444C65.6249 3.05559 62.5696 0 58.8007 0Z" fill="black"/>
<path d="M49.7352 40.8984C50.0434 41.0783 50.4853 41.1965 50.9658 41.1965C52.0089 41.1965 52.6075 40.6544 52.6075 39.8835C52.6075 39.231 52.217 38.8508 51.4564 38.5604C50.8861 38.342 50.6215 38.1803 50.6215 37.8154C50.6215 37.4891 50.8861 37.2194 51.3562 37.2194C51.7647 37.2194 52.0808 37.3632 52.2529 37.4712L52.4534 36.8931C52.2092 36.7467 51.8188 36.6208 51.3743 36.6208C50.4314 36.6208 49.8611 37.2015 49.8611 37.9079C49.8611 38.4321 50.2336 38.8688 51.0223 39.1488C51.6106 39.3672 51.8368 39.5752 51.8368 39.9555C51.8368 40.3178 51.5645 40.6082 50.9838 40.6082C50.5856 40.6082 50.1694 40.4437 49.9332 40.2895L49.7352 40.8984ZM58.7426 41.1066C58.6887 40.8086 58.6706 40.436 58.6706 40.0558V38.4141C58.6706 37.5355 58.3444 36.6209 57.0032 36.6209C56.4509 36.6209 55.9242 36.775 55.562 37.0089L55.7443 37.5355C56.05 37.335 56.4765 37.2092 56.885 37.2092C57.7815 37.2092 57.8819 37.8619 57.8819 38.224V38.3139C56.1861 38.3063 55.2433 38.8869 55.2433 39.9454C55.2433 40.58 55.6981 41.2067 56.587 41.2067C57.2113 41.2067 57.6814 40.8985 57.9281 40.5542H57.9537L58.018 41.1066H58.7426ZM57.8999 39.6294C57.8999 39.7116 57.882 39.8014 57.8536 39.8836C57.7277 40.2537 57.3656 40.6158 56.7952 40.6158C56.3867 40.6158 56.0424 40.3718 56.0424 39.8553C56.0424 39.0051 57.0289 38.8508 57.8999 38.8689V39.6294ZM65.5842 36.7211H64.7877V39.411C64.7877 39.5574 64.7595 39.7013 64.7157 39.8195C64.5693 40.174 64.1994 40.544 63.6624 40.544C62.938 40.544 62.6836 39.9838 62.6836 39.149V36.7211H61.8871V39.2852C61.8871 40.8266 62.7118 41.2067 63.4003 41.2067C64.1788 41.2067 64.6413 40.7444 64.8519 40.3898H64.8699L64.9136 41.1067H65.6201C65.5943 40.7625 65.5841 40.3642 65.5841 39.9095L65.5842 36.7211ZM64.1609 34.8251L63.3644 36.1225H63.9348L65.0421 34.8251H64.1609ZM71.8579 34.6709V37.2914H71.84C71.6395 36.9369 71.1875 36.6209 70.5169 36.6209C69.4455 36.6209 68.5413 37.5176 68.549 38.9767C68.549 40.3101 69.366 41.2067 70.4244 41.2067C71.1412 41.2067 71.6756 40.8342 71.9197 40.3461H71.9377L71.9763 41.1066H72.6904C72.6648 40.8086 72.6545 40.3641 72.6545 39.9737V34.6709H71.8579ZM71.8579 39.2671C71.8579 39.393 71.8477 39.5035 71.8221 39.6113C71.6756 40.2099 71.1875 40.5619 70.6531 40.5619C69.7898 40.5619 69.3556 39.8297 69.3556 38.9409C69.3556 37.9697 69.8463 37.2451 70.671 37.2451C71.267 37.2451 71.7037 37.6613 71.8221 38.1701C71.8477 38.2703 71.8579 38.4064 71.8579 38.5066V39.2671ZM79.4626 39.0591C79.4704 38.9768 79.4883 38.8509 79.4883 38.6864C79.4883 37.8798 79.108 36.6209 77.677 36.6209C76.3976 36.6209 75.6192 37.6614 75.6192 38.9845C75.6192 40.3102 76.4259 41.1966 77.7773 41.1966C78.4735 41.1966 78.9539 41.0526 79.2365 40.9243L79.1003 40.3538C78.7998 40.4824 78.4555 40.58 77.8852 40.58C77.0887 40.58 76.3976 40.138 76.3797 39.0591H79.4626ZM76.3898 38.4862C76.4542 37.9339 76.8061 37.1913 77.6129 37.1913C78.5094 37.1913 78.7278 37.9801 78.72 38.4862H76.3898ZM87.1108 41.1067V36.7212H86.3144V41.1067H87.1108ZM86.7127 34.9895C86.4223 34.9895 86.2141 35.2053 86.2141 35.488C86.2141 35.7602 86.412 35.976 86.6946 35.976C87.0106 35.976 87.2111 35.7602 87.2008 35.488C87.2008 35.2054 87.0106 34.9895 86.7127 34.9895ZM90.3941 41.1067H91.1906V38.4681C91.1906 38.332 91.2086 38.1983 91.2447 38.0982C91.3807 37.6537 91.7892 37.2812 92.3132 37.2812C93.0661 37.2812 93.3307 37.872 93.3307 38.5787V41.1067H94.1271V38.4862C94.1271 36.9833 93.1843 36.621 92.5779 36.621C91.8535 36.621 91.3448 37.0269 91.1264 37.4457H91.1084L91.0647 36.7212H90.3557C90.384 37.0834 90.3941 37.4534 90.3941 37.9081L90.3941 41.1067ZM97.562 35.6677V36.7212H96.8837V37.3275H97.562V39.7193C97.562 40.2356 97.6442 40.6262 97.8703 40.8625C98.0604 41.0784 98.3609 41.1965 98.7309 41.1965C99.0392 41.1965 99.2833 41.1528 99.4374 41.0885L99.4014 40.4899C99.3012 40.5182 99.1471 40.544 98.939 40.544C98.4946 40.544 98.3404 40.2356 98.3404 39.6935V37.3275H99.4838V36.7212H98.3404V35.4597L97.562 35.6677ZM105.811 39.0591C105.819 38.9768 105.837 38.8509 105.837 38.6864C105.837 37.8798 105.456 36.6209 104.026 36.6209C102.746 36.6209 101.968 37.6614 101.968 38.9845C101.968 40.3102 102.774 41.1966 104.126 41.1966C104.822 41.1966 105.302 41.0526 105.585 40.9243L105.449 40.3538C105.148 40.4824 104.804 40.58 104.234 40.58C103.437 40.58 102.746 40.138 102.728 39.0591H105.811ZM102.738 38.4862C102.803 37.9339 103.155 37.1913 103.961 37.1913C104.858 37.1913 105.076 37.9801 105.069 38.4862H102.738ZM108.784 41.1067H109.58V34.671H108.784V41.1067ZM113.678 41.1067V36.7212H112.881V41.1067H113.678ZM113.28 34.9895C112.989 34.9895 112.781 35.2053 112.781 35.488C112.781 35.7602 112.979 35.976 113.261 35.976C113.577 35.976 113.778 35.7602 113.768 35.488C113.768 35.2054 113.578 34.9895 113.28 34.9895ZM120.041 36.7212L120.005 37.3814H119.988C119.797 37.0191 119.379 36.6209 118.618 36.6209C117.614 36.6209 116.643 37.4637 116.643 38.9486C116.643 40.1638 117.421 41.0886 118.51 41.0886C119.189 41.0886 119.661 40.7625 119.905 40.3538H119.923V40.8446C119.923 41.9493 119.325 42.3757 118.51 42.3757C117.966 42.3757 117.513 42.2114 117.223 42.0315L117.023 42.6378C117.377 42.8741 117.958 43 118.482 43C119.034 43 119.651 42.8741 120.078 42.476C120.504 42.0957 120.704 41.4792 120.704 40.4721V37.9261C120.704 37.3917 120.722 37.0371 120.74 36.7211L120.041 36.7212ZM119.916 39.2389C119.916 39.3751 119.898 39.5292 119.851 39.6653C119.679 40.174 119.235 40.4824 118.747 40.4824C117.883 40.4824 117.449 39.7655 117.449 38.9049C117.449 37.8901 117.994 37.2452 118.754 37.2452C119.335 37.2452 119.725 37.6254 119.869 38.0879C119.905 38.1983 119.916 38.3139 119.916 38.4501V39.2389ZM127.51 39.0591C127.518 38.9768 127.536 38.8509 127.536 38.6864C127.536 37.8798 127.155 36.6209 125.724 36.6209C124.445 36.6209 123.667 37.6614 123.667 38.9845C123.667 40.3102 124.473 41.1966 125.825 41.1966C126.521 41.1966 127.001 41.0526 127.284 40.9243L127.148 40.3538C126.847 40.4824 126.503 40.58 125.933 40.58C125.136 40.58 124.445 40.138 124.427 39.0591H127.51ZM124.437 38.4862C124.501 37.9339 124.853 37.1913 125.66 37.1913C126.557 37.1913 126.775 37.9801 126.767 38.4862H124.437ZM130.482 41.1067H131.279V38.4681C131.279 38.332 131.297 38.1983 131.333 38.0982C131.469 37.6537 131.877 37.2812 132.401 37.2812C133.154 37.2812 133.419 37.872 133.419 38.5787V41.1067H134.215V38.4862C134.215 36.9833 133.273 36.621 132.666 36.621C131.942 36.621 131.433 37.0269 131.215 37.4457H131.197L131.153 36.7212H130.444C130.472 37.0834 130.482 37.4534 130.482 37.9081L130.482 41.1067ZM137.65 35.6677V36.7212H136.972V37.3275H137.65V39.7193C137.65 40.2356 137.732 40.6262 137.958 40.8625C138.148 41.0784 138.449 41.1965 138.819 41.1965C139.127 41.1965 139.371 41.1528 139.526 41.0885L139.49 40.4899C139.389 40.5182 139.235 40.544 139.027 40.544C138.583 40.544 138.429 40.2356 138.429 39.6935V37.3275H139.572V36.7212H138.429V35.4597L137.65 35.6677ZM145.898 39.0591C145.906 38.9768 145.924 38.8509 145.924 38.6864C145.924 37.8798 145.544 36.6209 144.113 36.6209C142.833 36.6209 142.055 37.6614 142.055 38.9845C142.055 40.3102 142.862 41.1966 144.213 41.1966C144.909 41.1966 145.39 41.0526 145.672 40.9243L145.536 40.3538C145.236 40.4824 144.891 40.58 144.321 40.58C143.525 40.58 142.833 40.138 142.815 39.0591H145.898ZM142.826 38.4862C142.89 37.9339 143.242 37.1913 144.049 37.1913C144.945 37.1913 145.164 37.9801 145.156 38.4862H142.826Z" fill="black"/>
<path d="M145.242 27.2977H141.83C141.202 27.2977 140.693 26.7883 140.693 26.1602C140.693 25.5321 141.202 25.0229 141.83 25.0229H145.242V27.2977ZM145.242 13.6491H137.28V18.1986H144.105C144.733 18.1986 145.242 18.7078 145.242 19.336V20.4734H140.693C138.18 20.4734 136.143 22.5103 136.143 25.023V27.2978C136.143 29.8104 138.18 31.8473 140.693 31.8473H149.792V18.1986C149.792 15.686 147.755 13.6491 145.242 13.6491Z" fill="black"/>
<path d="M111.12 20.4729C111.12 24.242 108.065 27.2973 104.296 27.2973V6.82444H99.7465V31.8467H104.296C110.578 31.8467 115.67 26.7545 115.67 20.4729V0H111.12V20.4729Z" fill="black"/>
<path d="M92.9223 26.1597C92.9223 26.7879 92.4129 27.2972 91.7848 27.2972H89.51C88.8818 27.2972 88.3726 26.7879 88.3726 26.1597V19.3354C88.3726 18.7074 88.8818 18.1982 89.51 18.1982H91.7848C92.4129 18.1982 92.9223 18.7075 92.9223 19.3354V26.1597ZM92.9223 13.6485H88.3726C85.86 13.6485 83.8231 15.6853 83.8231 18.1982V27.2972C83.8231 29.8098 85.86 31.8467 88.3726 31.8467H92.9223C95.4349 31.8467 97.4718 29.8098 97.4718 27.2972V18.1982C97.4718 15.6853 95.4349 13.6485 92.9223 13.6485Z" fill="black"/>
<path d="M117.945 31.8471H122.494V13.6491H117.945V31.8471Z" fill="black"/>
<path d="M117.945 11.3741H122.494V6.82473H117.945V11.3741Z" fill="black"/>
<path d="M129.377 6.82432H124.769V25.0226C124.769 28.7916 127.824 31.8469 131.593 31.8469H133.868V27.2505H131.652C130.395 27.2505 129.377 26.2322 129.377 24.9757V18.1982H133.868V13.6486H129.377L129.377 6.82432Z" fill="black"/>
</svg>
