<svg width="240" height="96" viewBox="0 0 240 96" fill="none" xmlns="http://www.w3.org/2000/svg">
<path fill-rule="evenodd" clip-rule="evenodd" d="M103.049 81.607H120.812V75.8105H109.545V52.8305H103.049L103.049 81.607ZM132.79 82.1413C135.709 82.1413 137.765 80.6611 138.588 79.2228H138.917V81.607H144.961V59.9013H138.588V72.0695C138.588 74.3716 137.107 76.2215 134.887 76.2215C132.708 76.2215 131.392 74.6595 131.392 72.398V59.9011H125.019V74.3714C125.019 78.8933 127.979 82.1413 132.79 82.1413ZM160.558 81.607H164.958V76.3448H162.162C160.27 76.3448 159.365 75.3583 159.365 73.7553V64.8756H165.04V59.9016H159.365V54.0226H153.321V58.0104C153.321 59.1617 152.704 59.9428 151.553 59.9428H149.497V64.8756H152.992V74.0837C152.992 78.8525 155.829 81.607 160.558 81.607ZM169.411 81.607H187.257V76.1805H177.676V75.8518L187.051 65.1631V59.9016H169.74V65.1631H178.786V65.4924L169.411 75.9751L169.411 81.607Z" fill="black"/>
<path fill-rule="evenodd" clip-rule="evenodd" d="M102.313 44.8749H108.974L110.66 39.7775H121.68L123.407 44.8749H130.315L120.405 16.0984H112.099L102.313 44.8749ZM112.428 33.9806L116.006 23.2515H116.375L119.912 33.9806H112.428ZM142.087 45.4092C145.665 45.4092 147.474 43.395 148.091 42.4085H148.42V44.8749H154.752V14.043H148.378V25.6357H148.049C147.309 24.4848 145.335 22.635 141.923 22.635C136.084 22.635 132.055 27.3212 132.055 34.1454C132.055 40.9693 136.125 45.4092 142.087 45.4092ZM143.526 39.654C140.525 39.654 138.51 37.3929 138.51 34.0225C138.51 30.692 140.525 28.3904 143.486 28.3904C146.405 28.3904 148.502 30.5689 148.502 34.0225C148.502 37.2288 146.569 39.654 143.526 39.654ZM170.595 45.4092C177.585 45.4092 182.314 40.4348 182.314 34.0223C182.314 27.6086 177.585 22.635 170.636 22.635C163.605 22.635 158.918 27.6086 158.918 34.0223C158.918 40.4348 163.646 45.4092 170.595 45.4092ZM170.595 39.654C167.594 39.654 165.373 37.3517 165.373 34.0225C165.373 30.7333 167.594 28.3904 170.595 28.3904C173.638 28.3904 175.858 30.7333 175.858 34.0225C175.858 37.3111 173.638 39.654 170.595 39.654ZM193.634 44.8749H195.814V39.284H195.032C193.881 39.284 193.223 38.6262 193.223 37.3111V14.0432H186.85V38.0509C186.85 42.2856 189.276 44.8749 193.634 44.8749ZM201.912 44.8749H208.285V28.1436H213.672V23.1695H208.203V22.0592C208.203 20.4562 209.107 19.3054 211.122 19.3054H213.507V14.0432H210.382C205.448 14.0432 202.076 17.0031 202.076 21.7718V23.1695H198.375V28.1436H201.912L201.912 44.8749ZM228.281 45.4092C235.271 45.4092 240 40.4348 240 34.0223C240 27.6086 235.272 22.635 228.322 22.635C221.291 22.635 216.603 27.6086 216.603 34.0223C216.603 40.4348 221.332 45.4092 228.281 45.4092ZM228.281 39.654C225.28 39.654 223.059 37.3517 223.059 34.0225C223.059 30.7333 225.28 28.3904 228.281 28.3904C231.324 28.3904 233.544 30.7333 233.544 34.0225C233.544 37.3111 231.324 39.654 228.281 39.654Z" fill="black"/>
<path fill-rule="evenodd" clip-rule="evenodd" d="M40.5439 14.6613C18.2538 14.8398 0.215789 32.8506 0 55.126H14.6461C14.8599 40.937 26.3426 29.4808 40.5439 29.3039V14.6613Z" fill="black"/>
<path d="M0 55.126H14.6461C14.8599 40.937 26.3426 29.4808 40.5439 29.3039V14.6613C18.2538 14.8398 0.215789 32.8506 0 55.126Z" fill="black"/>
<path fill-rule="evenodd" clip-rule="evenodd" d="M7.35074 55.0698C7.52924 77.3547 25.5439 95.3882 47.8253 95.6035V80.9616C33.6327 80.7471 22.174 69.2678 21.9968 55.07L7.35074 55.0698Z" fill="black"/>
<path d="M21.9968 55.07L7.35074 55.0698C7.52924 77.3547 25.5439 95.3882 47.8253 95.6035V80.9616C33.6327 80.7471 22.174 69.2678 21.9968 55.07Z" fill="black"/>
<path fill-rule="evenodd" clip-rule="evenodd" d="M47.8423 80.9295C70.1324 80.7511 88.1702 62.7403 88.386 40.4649H73.7394C73.5261 54.6539 62.0434 66.1101 47.8423 66.287V80.9295Z" fill="black"/>
<path d="M88.386 40.4649H73.7394C73.5261 54.6539 62.0434 66.1101 47.8423 66.287V80.9295C70.1324 80.7511 88.1702 62.7403 88.386 40.4649Z" fill="black"/>
<path fill-rule="evenodd" clip-rule="evenodd" d="M40.5187 0C62.8088 0.178458 80.8468 18.1892 81.0626 40.4649H66.4165C66.2023 26.2756 54.72 14.8199 40.5187 14.6426V0Z" fill="black"/>
<path d="M66.4165 40.4649H81.0626C80.8471 18.1976 62.823 0.19282 40.5457 0.000244881L40.5187 0V14.6426C54.72 14.8199 66.2023 26.2756 66.4165 40.4649Z" fill="black"/>
</svg>
